<?xml version="1.0" standalone="yes"?>
<svg xmlns="http://www.w3.org/2000/svg" width="512" height="512">
<path style="fill:#ffffff; stroke:none;" d="M0 0L0 280L1 280C4.30628 239.52 52.8048 213.384 89 228.873C105.719 236.027 116.773 249.172 129.039 262C142.055 275.611 155.683 288.683 169 302L170 302C226.171 245.829 280.825 188.175 337 132C360.549 108.451 382.385 80.0507 409 59.8997C445.255 32.4498 507.124 55.5452 511 103L512 103L512 0L0 0z"/>
<path style="fill:#010101; stroke:none;" d="M170 302C156.35 288.35 142.38 274.952 129.039 261C116.383 247.764 104.804 234.057 87 227.698C37.5715 210.046 -9.01288 256.562 1.00386 306C6.02502 330.782 25.9589 346.959 43 364C62.8076 383.808 82.4118 403.935 101.985 424C125.994 448.611 150.463 473.108 188 461.964C204.94 456.935 215.848 445.152 228 433C243.838 417.162 259.194 400.831 275 385C327.132 332.784 377.84 279.16 430 227C445.505 211.495 460.527 195.498 476 180C487.326 168.655 499.929 157.885 506.688 143C530.12 91.3895 480.675 32.8328 426 50.6713C405.555 57.3419 391.733 75.2668 377 90C348 119 319.967 148.987 291 178C265.505 203.536 240.512 229.488 215 255C200.244 269.756 181.991 284.977 170 302z"/>
<path style="fill:#ffffff; stroke:none;" d="M170 351C150.156 331.156 130.829 310.829 111 291C102.031 282.031 92.9558 269.853 82 263.353C60.84 250.797 36.0471 265.673 33.2932 289C31.1807 306.894 47.5363 319.248 58.1698 331C83.8083 359.335 111.976 385.976 139 413C151.839 425.839 168.019 436.773 186 425.441C209.725 410.487 229.21 382.79 249 363C297.164 314.836 343.835 265.165 392 217C410.847 198.153 429.152 178.848 448 160C457.454 150.546 470.697 140.598 476.045 128C486.935 102.343 461.784 73.6258 435 84.0694C423.753 88.455 415.318 99.6785 407 108C388.86 126.147 371.056 144.73 353.004 163C331.155 185.112 309.977 208.015 288 230C263.156 254.854 238.845 280.155 214 305C199.558 319.442 181.737 334.337 170 351M511 126C509.309 146.703 493.804 161.196 480 175C467.166 187.834 454.846 201.154 442 214C384.316 271.684 325.695 329.307 270.09 389C256.093 404.026 241.528 418.472 227 433C214.105 445.895 202.392 458.439 184 462.764C148.37 471.142 125.444 447.513 102.961 424C82.3082 402.402 61.1219 381.122 40 360C24.1378 344.138 2.96908 327.108 1 303L0 303L0 512L512 512L512 239L512 160L511 126z"/>
</svg>
