<?xml version="1.0" encoding="utf-8"?>
<!-- Generator: Adobe Illustrator 16.0.0, SVG Export Plug-In . SVG Version: 6.00 Build 0)  -->
<!DOCTYPE svg PUBLIC "-//W3C//DTD SVG 1.1//EN" "http://www.w3.org/Graphics/SVG/1.1/DTD/svg11.dtd">
<svg version="1.1" id="Layer_1" xmlns="http://www.w3.org/2000/svg" xmlns:xlink="http://www.w3.org/1999/xlink" x="0px" y="0px"
	 width="1024px" height="1024px" viewBox="0 0 1024 1024" enable-background="new 0 0 1024 1024" xml:space="preserve">
<rect fill="none" width="1024" height="1024"/>
<g>
	<path fill-rule="evenodd" clip-rule="evenodd" d="M187.33,266.624c2.635,25.92,5.341,53.641,7.961,79.577
		c9.022,89.445,18.002,179.776,27.039,269.222c9.716,96.11,19.432,192.651,29.318,288.749c1.188,11.552,1.77,23.794,5.439,34.598
		c11.417,33.652,36.88,54.76,71.428,60.737c-2.113,2.471-3.515,5.718-3.515,9.253v1.178c0,7.802,6.235,14.063,13.926,14.063h73.679
		c7.689,0,13.395-6.261,13.395-14.063v-1.178c0-2.701-0.686-5.087-1.989-7.243c54.702,0.058,109.499,0,164.199-0.07
		c-1.346,2.155-2.21,4.567-2.21,7.313v1.178c0,7.802,6.3,14.063,13.991,14.063h73.681c7.691,0,13.328-6.261,13.328-14.063v-1.178
		c0-2.758-0.397,1.24-1.743-13.76c0.155,0,0.298,0,0.468,0c11.813,0,24.092,1.355,35.325-2.295
		c30.227-9.771,49.813-29.907,58.071-60.512c4.137-15.374,4.093-31.139,5.723-47.188c6.119-60.033,12.124-119.671,18.215-179.702
		c7.124-70.163,14.275-140.137,21.429-210.298c6.247-61.268,12.491-125.984,18.711-187.252c1.516-14.986,2.917-19.752,4.392-48.752
		c-220.503,0-440.296,0-660.287,0C187.303,274,187.202,265.416,187.33,266.624z"/>
	<path fill-rule="evenodd" clip-rule="evenodd" d="M843.156,136.68c-7.082-2.299-14.872-7.377-22.351-7.435
		C778.441,128.929,736.076,125,693.714,125c-2.903,0-5.808,0-9.604,0c0,0,0.028-2.451,0-5.382
		c-0.241-23.334,0.355-44.69-0.907-67.982c-1.798-33.077-18.496-48.46-50.932-51.033c-5.864-0.459-11.742-0.321-17.62-0.321
		C550.49,0.227,486.328,0.474,422.18,0.532c-5.878,0.029-11.771,0.47-17.606,1.06c-29.121,2.974-47.023,19.523-52.292,48.735
		c-1.361,7.514-1.657,11.265-1.756,18.937C350.298,88.834,350.44,111,350.44,125c-4.123,0-7.026,0-9.929,0
		c-41.882,0-83.751,4.044-125.619,4.13c-5.128,0.029-10.354,2.222-15.34,3.257c-20.438,4.253-35.309,16.874-42.193,37.177
		c-6.36,18.737-2.238,36.463,10.623,51.104c11.558,13.133,26.571,19.158,43.908,19.158c203.505-0.028,406.997,0.126,610.501,0.054
		c4.859,0,9.816-0.391,14.576-1.397c24.006-5.086,41.441-25.182,43.028-49.292C881.497,166.489,866.229,144.195,843.156,136.68z
		 M615,125c-72,0-130,0-189,0c0-14,0-27,0-56c59,0,117,0,189,0C615,98,615,111,615,125z"/>
</g>
</svg>
